# xmcd CD database file
#
# Track frame offsets:
#	150
#	24175
#	53637
#	82277
#	97697
#	118585
#	151485
#	184713
#
# Disc length: 2801 seconds
#
# Revision: 1
# Processed by: cddbd v1.5.2PL0 Copyright (c) Steve Scherf et al.
# Submitted via: CDex 1.51
#
DISCID=560aef08
DTITLE=Turner, Big Joe - Chains of Love
DYEAR=1900
DGENRE=
TTITLE0=shake, rattle and roll
TTITLE1=morning, noon and night
TTITLE2=early one morning
TTITLE3=jump for joy
TTITLE4=hide and go seek
TTITLE5=the night time is the right time
TTITLE6=chains of love
TTITLE7=corina, corina
EXTD=
EXTT0=
EXTT1=
EXTT2=
EXTT3=
EXTT4=
EXTT5=
EXTT6=
EXTT7=
PLAYORDER=
